# xmcd
#
# Track frame offsets:
#	150
#	17152
#	38767
#	63390
#	81850
#	99558
#	122038
#	139616
#	159849
#	179044
#	187871
#	202012
#	217044
#	238677
#	262899
#
# Disc length: 3952 seconds
#
# Revision: 1
# Processed by: cddbd v1.5.2PL0 Copyright (c) Steve Scherf et al.
# Submitted via: audiograbber 1.83.01
#
DISCID=ce0f6e0f
DTITLE=Roger Chapman - Mail Order Magic
DYEAR=1980
DGENRE=Pop
TTITLE0=Roger Chapman - Unknown Soldier
TTITLE1=Roger Chapman - He Was She Was
TTITLE2=Roger Chapman - Barman
TTITLE3=Roger Chapman - Right To Go
TTITLE4=Roger Chapman - Ducking Down
TTITLE5=Roger Chapman - Making The Same Mistake
TTITLE6=Roger Chapman - Another Little Hurt
TTITLE7=Roger Chapman - Mail Order Magic
TTITLE8=Roger Chapman - Higher Ground
TTITLE9=Roger Chapman - Ground Floor
TTITLE10=Roger Chapman - Bonus: Fortune Teller
TTITLE11=Roger Chapman - Bonus: Higher Ground (original demo)
TTITLE12=Roger Chapman - Bonus: Unknown Soldier (live)
TTITLE13=Roger Chapman - Bonus: Ducking Down (live)
TTITLE14=Roger Chapman - Bonus: He Was She Was (live)
EXTD=neue, erweiterte, Fassung des Mail Order Magic Albums von Roger Chapman
EXTT0=
EXTT1=
EXTT2=
EXTT3=
EXTT4=
EXTT5=
EXTT6=
EXTT7=
EXTT8=
EXTT9=
EXTT10=
EXTT11=
EXTT12=
EXTT13=
EXTT14=
PLAYORDER=
